<svg xmlns="http://www.w3.org/2000/svg" viewBox="0 0 48 39.27"><defs><style>.cls-1{fill:#fff;fill-rule:evenodd;}</style></defs><title>Bandeja</title><g id="Capa_2" data-name="Capa 2"><g id="Capa_1-2" data-name="Capa 1"><path class="cls-1" d="M47.87,22.43h0L37,.6h0A1.08,1.08,0,0,0,36,0H12a1.08,1.08,0,0,0-1,.61h0L.12,22.42h0a1.06,1.06,0,0,0-.13.48V38.18a1.09,1.09,0,0,0,1.09,1.09H46.91A1.09,1.09,0,0,0,48,38.18V22.91a1.06,1.06,0,0,0-.13-.48M12.67,2.18H35.33l9.82,19.64H31.64a1.09,1.09,0,0,0-1.09,1.09,6.54,6.54,0,1,1-13.09,0,1.09,1.09,0,0,0-1.09-1.09H2.86ZM45.82,37.09H2.18V24H15.35a8.72,8.72,0,0,0,17.3,0H45.82Z"/></g></g></svg>