<svg xmlns="http://www.w3.org/2000/svg" viewBox="0 0 49 49"><defs><style>.cls-1{fill:#fff;fill-rule:evenodd;}</style></defs><title>Globo 1</title><g id="Capa_2" data-name="Capa 2"><g id="Capa_1-2" data-name="Capa 1"><path class="cls-1" d="M27.28,29.37c-2.37-2-2.09-2.92-5.08-2.92s-4.87.7-4.11,4.87,3,2.3,2.79,5.5.56,3.9,1,4.66,1.95,3,2.5-.14a13.43,13.43,0,0,1,2.78-6.4c1.18-1.53,2.44-3.55.07-5.57m9.57-.17a1.34,1.34,0,0,0-.1,2.16c.66.59,2,1.36,2.4,0s-1.49-2.65-2.3-2.16M19.07,22.06c.14-1.6,2.71-3.27,4.45-4s3.34-1,3.13-2.37-.7-2.3-3.41-2.3S21.72,17,19.49,14.82s.49-1.6,1.6-2.09,2.23-2.51.28-2.65-1.53.83-3.06.28-2.23,1.95-3.2,1.6a12.92,12.92,0,0,1-3.51-2.8,20.09,20.09,0,0,0-5.4,7.19,9.42,9.42,0,0,0,2.37,5.7s1,2.44,7.31,5.43c0,0,1.18.07-.21-1.32s-2.92-3.13-1.18-4,2.23-.83,2.65.83,1.81.7,1.95-.91M24.5,0A24.5,24.5,0,1,0,49,24.5,24.5,24.5,0,0,0,24.5,0m0,46.77A22.27,22.27,0,1,1,46.77,24.5,22.27,22.27,0,0,1,24.5,46.77m20-24.13c0-.2,0-.38-.07-.58-.05-.42-.12-.84-.19-1.26,0-.21-.08-.42-.13-.63-.09-.41-.2-.82-.31-1.22-.05-.18-.1-.37-.15-.54-.17-.54-.37-1.07-.58-1.58-.09-.22-.2-.43-.29-.64s-.28-.61-.44-.91-.28-.52-.43-.78-.27-.45-.41-.67-.35-.56-.54-.82l-.32-.43A20.24,20.24,0,0,0,38,9.68l-.18-.17c-.35-.3-.7-.6-1.07-.88l-.06,0A20.06,20.06,0,0,0,31.4,5.7a7.83,7.83,0,0,1-1.82,2.44,1.41,1.41,0,0,0,1,2.57s-.56.56,0,2.57S32,15.75,34.8,14.62c1.18-.49,2.08-.23,1.95,1-.28,2.57-2.26,2.47-.77,6.61.91,2.5,3.13,3.48,4,5.43.46,1.07,2.22,2.06,3.72,2.73.16-.52.29-1.06.41-1.6,0-.2.08-.42.12-.62.07-.4.14-.81.19-1.23,0-.2,0-.39.07-.59.05-.6.09-1.21.09-1.82s0-1.25-.09-1.86"/></g></g></svg>