<svg xmlns="http://www.w3.org/2000/svg" viewBox="0 0 49 40.09"><defs><style>.cls-1{fill:#fff;fill-rule:evenodd;}</style></defs><title>Prismaticos</title><g id="Capa_2" data-name="Capa 2"><g id="Capa_1-2" data-name="Capa 1"><path class="cls-1" d="M11.14,22.27A6.68,6.68,0,0,0,4.46,29a1.11,1.11,0,1,0,2.23,0,4.46,4.46,0,0,1,4.46-4.45,1.11,1.11,0,1,0,0-2.23m26.73,0A6.68,6.68,0,0,0,31.18,29a1.11,1.11,0,0,0,2.23,0,4.46,4.46,0,0,1,4.46-4.45,1.11,1.11,0,1,0,0-2.23m10,1.82L39.71,4.45h0a6.67,6.67,0,0,0-13,2.22H22.27a6.67,6.67,0,0,0-13-2.22h0L1.13,24.09A11.13,11.13,0,1,0,22,31.18H27a11.13,11.13,0,1,0,20.92-7.09M11.14,37.86A8.91,8.91,0,1,1,20,29a8.91,8.91,0,0,1-8.91,8.91M20,22.3a11.09,11.09,0,0,0-14.52-3l6-14.5h0A4.43,4.43,0,0,1,20,6.29h0ZM26.73,29H22.27V26.73h4.46Zm0-4.45H22.27V8.91h4.46ZM29,6.3h0a4.43,4.43,0,0,1,8.46-1.45h0l6,14.5A11.09,11.09,0,0,0,29,22.3Zm8.91,31.57A8.91,8.91,0,1,1,46.77,29a8.91,8.91,0,0,1-8.91,8.91"/></g></g></svg>