<svg xmlns="http://www.w3.org/2000/svg" viewBox="0 0 47 47"><defs><style>.cls-1{fill:#fff;fill-rule:evenodd;}</style></defs><title>Etiqueta</title><g id="Capa_2" data-name="Capa 2"><g id="Capa_1-2" data-name="Capa 1"><path class="cls-1" d="M9.61,6.41a3.21,3.21,0,1,0,3.21,3.21A3.21,3.21,0,0,0,9.61,6.41m0,4.27a1.07,1.07,0,1,1,1.07-1.07,1.07,1.07,0,0,1-1.07,1.07m16,18.16a1.07,1.07,0,0,0,.75-.31l4.27-4.27a1.07,1.07,0,0,0-1.51-1.51L24.88,27a1.07,1.07,0,0,0,.75,1.82m21.05-5L23.19.31A1.06,1.06,0,0,0,22.43,0H3.21A3.21,3.21,0,0,0,0,3.21V22.43a1.06,1.06,0,0,0,.31.75l23.5,23.5a1.07,1.07,0,0,0,1.51,0L46.69,25.32a1.07,1.07,0,0,0,0-1.51M24.57,44.42,2.14,22V3.21A1.07,1.07,0,0,1,3.21,2.14H22L44.42,24.57Zm-5-12.06a1.07,1.07,0,0,0,.76,1.82,1,1,0,0,0,.75-.31l2.14-2.14A1.06,1.06,0,0,0,23.5,31a1.07,1.07,0,0,0-1.82-.75Zm5,6.1a1.06,1.06,0,0,0,.76-.31l6.41-6.41A1,1,0,0,0,32,31a1.07,1.07,0,0,0-1.82-.75l-6.41,6.41a1.07,1.07,0,0,0,.75,1.82"/></g></g></svg>