<?xml version="1.0" encoding="utf-8"?>
<!-- Generator: Adobe Illustrator 21.0.0, SVG Export Plug-In . SVG Version: 6.00 Build 0)  -->
<!DOCTYPE svg PUBLIC "-//W3C//DTD SVG 1.1//EN" "http://www.w3.org/Graphics/SVG/1.1/DTD/svg11.dtd">
<svg version="1.1" id="Layer_1" xmlns="http://www.w3.org/2000/svg" xmlns:xlink="http://www.w3.org/1999/xlink" x="0px" y="0px"
	 viewBox="0 0 55 55" style="enable-background:new 0 0 55 55;" xml:space="preserve">
<style type="text/css">
	.st0{fill:#999999;}
</style>
<g>
	<path class="st0" d="M27.4,0c7.7,0,14.2,2.7,19.6,8c2.6,2.6,4.5,5.5,5.9,8.9c1.3,3.3,2,6.8,2,10.6c0,3.8-0.7,7.3-2,10.6
		c-1.3,3.3-3.3,6.2-5.9,8.7c-2.7,2.6-5.7,4.7-9.1,6.1c-3.4,1.4-6.9,2.1-10.5,2.1c-3.6,0-7.1-0.7-10.4-2.1c-3.3-1.4-6.3-3.4-8.9-6
		c-2.6-2.6-4.6-5.6-6-8.9C0.7,34.6,0,31.1,0,27.5c0-3.6,0.7-7.1,2.1-10.5c1.4-3.4,3.4-6.4,6.1-9C13.4,2.7,19.8,0,27.4,0z M27.5,5
		C21.2,5,16,7.1,11.7,11.5c-2.2,2.2-3.8,4.7-5,7.4C5.5,21.6,5,24.5,5,27.5c0,2.9,0.6,5.8,1.7,8.5c1.2,2.7,2.8,5.2,5,7.3
		c2.2,2.1,4.6,3.8,7.3,4.9c2.7,1.1,5.6,1.7,8.5,1.7c2.9,0,5.8-0.6,8.6-1.7c2.8-1.1,5.3-2.8,7.5-5C47.9,39,50,33.8,50,27.5
		c0-3-0.6-5.9-1.7-8.6c-1.1-2.7-2.7-5.1-4.9-7.3C39.1,7.2,33.7,5,27.5,5z M27.2,22.9l-3.7,1.9c-0.4-0.8-0.9-1.4-1.4-1.7
		c-0.6-0.3-1.1-0.5-1.6-0.5c-2.5,0-3.7,1.6-3.7,4.9c0,1.5,0.3,2.6,0.9,3.5c0.6,0.9,1.5,1.3,2.7,1.3c1.6,0,2.7-0.8,3.4-2.4l3.4,1.7
		c-0.7,1.3-1.7,2.4-3,3.2C23,35.6,21.6,36,20,36c-2.5,0-4.4-0.8-5.9-2.3c-1.5-1.5-2.3-3.6-2.3-6.3c0-2.6,0.8-4.7,2.3-6.2
		c1.5-1.5,3.4-2.3,5.8-2.3C23.3,18.9,25.7,20.3,27.2,22.9z M43,22.9l-3.6,1.9C39,24,38.5,23.4,38,23.1c-0.6-0.3-1.1-0.5-1.6-0.5
		c-2.5,0-3.7,1.6-3.7,4.9c0,1.5,0.3,2.6,0.9,3.5c0.6,0.9,1.5,1.3,2.7,1.3c1.6,0,2.7-0.8,3.4-2.4l3.4,1.7c-0.8,1.3-1.8,2.4-3,3.2
		c-1.3,0.8-2.7,1.2-4.2,1.2c-2.5,0-4.5-0.8-6-2.3c-1.5-1.5-2.2-3.6-2.2-6.3c0-2.6,0.8-4.7,2.3-6.2c1.5-1.5,3.4-2.3,5.8-2.3
		C39.2,18.9,41.6,20.3,43,22.9z"/>
</g>
</svg>
